<svg xmlns="http://www.w3.org/2000/svg" width="55" height="55" viewBox="0 0 55 55"><defs><style>.a{fill:#3f2c65;}.b{fill:#fff;}</style></defs><g transform="translate(-20 -36)"><circle class="a" cx="27.5" cy="27.5" r="27.5" transform="translate(20 36)"/><path class="b" d="M7.351.038a17.854,17.854,0,0,0,9.725,5.04c1.181.19,2.006-.317,2.031-1.346.025-.876-.482-1.371-1.435-1.638a16.308,16.308,0,0,1-8.138-4.24C4.9-6.767,3.859-14.231,7.82-18.205c3.06-3.047,8.074-2.907,11.781-.9l2.285-2.26c-5.256-3.288-12.124-3.148-16.25.978C.686-15.425,1.155-6.157,7.351.038ZM27.879-19.094l1.206-1.27a1.686,1.686,0,0,0,.089-2.412l-.457-.47a1.7,1.7,0,0,0-2.311.2l-1.244,1.231ZM15.323-6.563,26.9-18.129l-2.717-2.717L12.619-9.268,11.4-6.183a.634.634,0,0,0,.8.813Zm-2.78,2.641c3.885,4.316,11.375,5.764,15.3,1.841,3.2-3.2,3.148-8.874-.432-13.863l-2.222,2.234c2.311,3.377,2.691,7.211.457,9.445-2.78,2.78-7.186,1.638-9.775-.914Z" transform="translate(31 73)"/></g></svg>