<svg xmlns="http://www.w3.org/2000/svg" width="55" height="55" viewBox="0 0 55 55"><defs><style>.a{fill:#3f2c65;}.b{fill:#fff;}</style></defs><g transform="translate(-20 -36)"><circle class="a" cx="27.5" cy="27.5" r="27.5" transform="translate(20 36)"/><path class="b" d="M15.133,3.694A12.928,12.928,0,0,0,27.98-9.153a12.934,12.934,0,0,0-12.86-12.86A12.931,12.931,0,0,0,2.272-9.153,12.939,12.939,0,0,0,15.133,3.694ZM11.464-15.5c.736-1.892,1.765-3.263,2.882-3.707v4A18.287,18.287,0,0,1,11.464-15.5Zm4.443-3.707c1.117.444,2.146,1.815,2.882,3.707a18.287,18.287,0,0,1-2.882.292Zm2.869.482a10.218,10.218,0,0,1,3.364,2.12,10.114,10.114,0,0,1-1.79.724A11.2,11.2,0,0,0,18.776-18.726ZM8.1-16.605a10.144,10.144,0,0,1,3.377-2.12A11.2,11.2,0,0,0,9.9-15.882,10.671,10.671,0,0,1,8.1-16.605ZM21.493-9.94a19.521,19.521,0,0,0-.673-4.494,11.412,11.412,0,0,0,2.374-1.016,10.179,10.179,0,0,1,2.133,5.51Zm-16.555,0a10.153,10.153,0,0,1,2.107-5.51,11.534,11.534,0,0,0,2.387,1.016A19.521,19.521,0,0,0,8.76-9.94Zm5.408,0a18.853,18.853,0,0,1,.635-4.1,21.248,21.248,0,0,0,3.364.394V-9.94Zm5.561,0v-3.707a21.426,21.426,0,0,0,3.364-.394,18.853,18.853,0,0,1,.635,4.1ZM4.926-8.392H8.76a20,20,0,0,0,.66,4.558,10.692,10.692,0,0,0-2.336,1A10.27,10.27,0,0,1,4.926-8.392Zm5.421,0h4v3.771a19.863,19.863,0,0,0-3.364.394A17.872,17.872,0,0,1,10.347-8.392Zm5.561,3.771V-8.392h4a19.324,19.324,0,0,1-.635,4.164A20.018,20.018,0,0,0,15.907-4.621Zm4.913.787a19.3,19.3,0,0,0,.673-4.558h3.834a10.159,10.159,0,0,1-2.146,5.561A10.92,10.92,0,0,0,20.82-3.834Zm-4.913.774a18.287,18.287,0,0,1,2.882.292C18.053-.889,17.024.5,15.907.939Zm-4.443.292a18.287,18.287,0,0,1,2.882-.292v4C13.229.5,12.2-.889,11.464-2.768Zm8.887.368a10.814,10.814,0,0,1,1.777.724,10.146,10.146,0,0,1-3.3,2.069A11.166,11.166,0,0,0,20.351-2.4ZM8.138-1.676A10.23,10.23,0,0,1,9.9-2.4,11.285,11.285,0,0,0,11.413.381,10.215,10.215,0,0,1,8.138-1.676Z" transform="translate(32 73)"/></g></svg>