<svg xmlns="http://www.w3.org/2000/svg" width="55" height="55" viewBox="0 0 55 55"><defs><style>.a{fill:#3f2c65;}.b{fill:#fff;}</style></defs><g transform="translate(-20 -36)"><circle class="a" cx="27.5" cy="27.5" r="27.5" transform="translate(20 36)"/><path class="b" d="M7.77,1.384H35.737c2.907,0,4.532-1.612,4.532-4.507V-15.615c0-2.895-1.625-4.507-4.532-4.507H7.77c-2.92,0-4.532,1.6-4.532,4.507V-3.123C3.237-.229,4.85,1.384,7.77,1.384Zm.394-3.4A1.345,1.345,0,0,1,6.64-3.555V-15.184A1.345,1.345,0,0,1,8.163-16.72H35.331a1.354,1.354,0,0,1,1.536,1.536V-3.555a1.354,1.354,0,0,1-1.536,1.536Zm24.87-10.22h.914a.54.54,0,0,0,.609-.6v-.914a.549.549,0,0,0-.609-.609h-.914a.549.549,0,0,0-.609.609v.914A.54.54,0,0,0,33.033-12.238Zm-3.91,0h.9a.535.535,0,0,0,.609-.6v-.914a.544.544,0,0,0-.609-.609h-.9a.544.544,0,0,0-.609.609v.914A.535.535,0,0,0,29.123-12.238Zm-3.923,0h.914a.54.54,0,0,0,.609-.6v-.914a.549.549,0,0,0-.609-.609H25.2a.549.549,0,0,0-.609.609v.914A.54.54,0,0,0,25.2-12.238Zm-3.91,0h.9a.535.535,0,0,0,.609-.6v-.914a.544.544,0,0,0-.609-.609h-.9a.544.544,0,0,0-.609.609v.914A.535.535,0,0,0,21.29-12.238Zm-3.923,0h.9a.535.535,0,0,0,.609-.6v-.914a.544.544,0,0,0-.609-.609h-.9a.549.549,0,0,0-.609.609v.914A.54.54,0,0,0,17.367-12.238Zm-3.923,0h.914a.54.54,0,0,0,.609-.6v-.914a.549.549,0,0,0-.609-.609h-.914a.54.54,0,0,0-.6.609v.914A.531.531,0,0,0,13.444-12.238Zm-3.91,0h.9a.535.535,0,0,0,.609-.6v-.914a.544.544,0,0,0-.609-.609h-.9a.544.544,0,0,0-.609.609v.914A.535.535,0,0,0,9.534-12.238Zm7.833,3.923h.9a.539.539,0,0,0,.609-.609v-.9a.539.539,0,0,0-.609-.609h-.9a.544.544,0,0,0-.609.609v.9A.544.544,0,0,0,17.367-8.315Zm3.923,0h.9a.539.539,0,0,0,.609-.609v-.9a.539.539,0,0,0-.609-.609h-.9a.539.539,0,0,0-.609.609v.9A.539.539,0,0,0,21.29-8.315Zm3.91,0h.914a.544.544,0,0,0,.609-.609v-.9a.544.544,0,0,0-.609-.609H25.2a.544.544,0,0,0-.609.609v.9A.544.544,0,0,0,25.2-8.315Zm3.923,0h.9a.539.539,0,0,0,.609-.609v-.9a.539.539,0,0,0-.609-.609h-.9a.539.539,0,0,0-.609.609v.9A.539.539,0,0,0,29.123-8.315Zm-15.679,0h.914a.544.544,0,0,0,.609-.609v-.9a.544.544,0,0,0-.609-.609h-.914a.535.535,0,0,0-.6.609v.9A.535.535,0,0,0,13.444-8.315Zm19.589,0h.914a.544.544,0,0,0,.609-.609v-.9a.544.544,0,0,0-.609-.609h-.914a.544.544,0,0,0-.609.609v.9A.544.544,0,0,0,33.033-8.315Zm-23.5,0h.9a.539.539,0,0,0,.609-.609v-.9a.539.539,0,0,0-.609-.609h-.9a.539.539,0,0,0-.609.609v.9A.539.539,0,0,0,9.534-8.315Zm3.91,3.923h16.58A.544.544,0,0,0,30.634-5v-.914a.544.544,0,0,0-.609-.609H13.444a.54.54,0,0,0-.6.609V-5A.54.54,0,0,0,13.444-4.393Zm19.589,0h.914A.549.549,0,0,0,34.557-5v-.914a.549.549,0,0,0-.609-.609h-.914a.549.549,0,0,0-.609.609V-5A.549.549,0,0,0,33.033-4.393Zm-23.5,0h.9A.544.544,0,0,0,11.045-5v-.914a.544.544,0,0,0-.609-.609h-.9a.544.544,0,0,0-.609.609V-5A.544.544,0,0,0,9.534-4.393Z" transform="translate(26 73)"/></g></svg>