<svg xmlns="http://www.w3.org/2000/svg" width="55" height="55" viewBox="0 0 55 55"><defs><style>.a{fill:#3f2c65;}.b{fill:#fff;}</style></defs><g transform="translate(-20 -36)"><circle class="a" cx="27.5" cy="27.5" r="27.5" transform="translate(20 36)"/><path class="b" d="M10.372-1.016h9.737a1.076,1.076,0,0,0,1.13-1.117V-3.91c0-3.072,4.57-4.913,4.57-10.766,0-6.208-4.266-10.436-10.575-10.436S4.672-20.884,4.672-14.676c0,5.853,4.57,7.693,4.57,10.766v1.777A1.076,1.076,0,0,0,10.372-1.016Zm.178,3.758h9.382A1.382,1.382,0,0,0,21.3,1.371,1.393,1.393,0,0,0,19.932-.013H10.55A1.393,1.393,0,0,0,9.179,1.371,1.382,1.382,0,0,0,10.55,2.742Zm4.685,3.4c2.069,0,3.542-.952,3.694-2.4H11.553C11.692,5.192,13.152,6.145,15.234,6.145Z" transform="translate(32 73)"/></g></svg>